<svg viewBox="0 0 128 112" xmlns="http://www.w3.org/2000/svg"><rect width="128" height="112" rx="12" fill="#15152a"/><rect width="128" height="112" rx="12" fill="none" stroke="rgba(255,255,255,.06)"/><ellipse cx="64" cy="96" rx="52" ry="6" fill="rgba(0,0,0,.25)"/><rect x="20" y="52" width="88" height="38" fill="#D8B25E"/><g fill="#C9A14E"><rect x="20" y="40" width="18" height="50"/><rect x="90" y="40" width="18" height="50"/><rect x="56" y="34" width="16" height="56"/></g><g fill="#15152a"><rect x="22" y="24" width="3" height="6"/><rect x="27" y="24" width="3" height="6"/><rect x="32" y="24" width="3" height="6"/><rect x="92" y="24" width="3" height="6"/><rect x="97" y="24" width="3" height="6"/><rect x="102" y="24" width="3" height="6"/><rect x="58" y="24" width="3" height="6"/><rect x="63" y="24" width="3" height="6"/><rect x="68" y="24" width="3" height="6"/></g><g fill="#8A5A2E"><path d="M42 90 V70 Q48 62 54 70 V90Z"/><path d="M74 90 V70 Q80 62 86 70 V90Z"/></g><rect x="18" y="88" width="92" height="5" rx="2" fill="#A67C3A"/></svg>