<svg viewBox="0 0 128 112" xmlns="http://www.w3.org/2000/svg"><rect width="128" height="112" rx="12" fill="#15152a"/><rect width="128" height="112" rx="12" fill="none" stroke="rgba(255,255,255,.06)"/><ellipse cx="64" cy="96" rx="52" ry="6" fill="rgba(0,0,0,.25)"/><g fill="#4E8FC0"><path d="M40 66 Q64 30 88 66 Z"/><path d="M28 70 Q40 50 52 70 Z"/><path d="M76 70 Q88 50 100 70 Z"/></g><rect x="62" y="16" width="4" height="12" fill="#7FB2DA"/><circle cx="64" cy="14" r="2.2" fill="#FFD54A"/><rect x="30" y="66" width="68" height="24" fill="#CFE0EE"/><g fill="#Bcd2e6"><rect x="18" y="30" width="6" height="60" rx="3" fill="#CFE0EE"/><rect x="104" y="30" width="6" height="60" rx="3" fill="#CFE0EE"/></g><polygon points="18,30 21,22 24,30" fill="#7FB2DA"/><polygon points="104,30 107,22 110,30" fill="#7FB2DA"/><path d="M56 90 V72 Q64 62 72 72 V90 Z" fill="#3E6E96"/><rect x="26" y="88" width="76" height="5" rx="2" fill="#9BB4C6"/></svg>