<svg viewBox="0 0 128 112" xmlns="http://www.w3.org/2000/svg"><rect width="128" height="112" rx="12" fill="#15152a"/><rect width="128" height="112" rx="12" fill="none" stroke="rgba(255,255,255,.06)"/><ellipse cx="64" cy="96" rx="52" ry="6" fill="rgba(0,0,0,.25)"/><g fill="#CFE3F5"><polygon points="64,8 60,90 68,90"/><polygon points="58,40 54,90 62,90"/><polygon points="70,40 66,90 74,90"/><polygon points="52,58 49,90 55,90"/><polygon points="76,58 73,90 79,90"/></g><line x1="64" y1="8" x2="64" y2="0" stroke="#9BC4E8" stroke-width="1.6"/><g stroke="#7FA9D0" stroke-width="1" opacity=".6"><line x1="50" y1="56" x2="78" y2="56"/><line x1="50" y1="64" x2="78" y2="64"/><line x1="50" y1="72" x2="78" y2="72"/><line x1="50" y1="80" x2="78" y2="80"/></g></svg>