<svg viewBox="0 0 128 112" xmlns="http://www.w3.org/2000/svg"><rect width="128" height="112" rx="12" fill="#15152a"/><rect width="128" height="112" rx="12" fill="none" stroke="rgba(255,255,255,.06)"/><ellipse cx="64" cy="96" rx="52" ry="6" fill="rgba(0,0,0,.25)"/><g fill="#E7D3A0"><path d="M26 84 Q26 52 64 52 Q102 52 102 84 Z" fill="#D9BE7F"/></g><g fill="#15152a"><rect x="34" y="60" width="6" height="10" rx="2"/><rect x="45" y="60" width="6" height="10" rx="2"/><rect x="56" y="60" width="6" height="10" rx="2"/><rect x="67" y="60" width="6" height="10" rx="2"/><rect x="78" y="60" width="6" height="10" rx="2"/><rect x="89" y="60" width="6" height="10" rx="2"/><rect x="30" y="74" width="6" height="9" rx="2"/><rect x="41" y="74" width="6" height="9" rx="2"/><rect x="52" y="74" width="6" height="9" rx="2"/><rect x="63" y="74" width="6" height="9" rx="2"/><rect x="74" y="74" width="6" height="9" rx="2"/><rect x="85" y="74" width="6" height="9" rx="2"/><rect x="96" y="74" width="6" height="9" rx="2"/></g><rect x="24" y="83" width="80" height="6" rx="3" fill="#A67C3A"/><path d="M26 52 Q64 40 102 52" fill="none" stroke="#F2E4B8" stroke-width="3"/></svg>