<svg viewBox="0 0 128 112" xmlns="http://www.w3.org/2000/svg"><rect width="128" height="112" rx="12" fill="#15152a"/><rect width="128" height="112" rx="12" fill="none" stroke="rgba(255,255,255,.06)"/><ellipse cx="64" cy="96" rx="52" ry="6" fill="rgba(0,0,0,.25)"/><path d="M44 40 Q64 12 84 40 Z" fill="#FFD54A"/><path d="M44 40 Q64 20 84 40" fill="none" stroke="#E0A800" stroke-width="1.5"/><rect x="62" y="10" width="4" height="8" fill="#FFD54A"/><circle cx="64" cy="8" r="2.4" fill="#FFD54A"/><rect x="42" y="40" width="44" height="46" fill="#DFE9EE"/><g fill="#2E7FB8"><path d="M46 86 V60 Q50 52 54 60 V86 Z"/><path d="M58 86 V60 Q62 52 66 60 V86 Z"/><path d="M70 86 V60 Q74 52 78 60 V86 Z"/></g><rect x="40" y="86" width="48" height="6" rx="2" fill="#A9BBC4"/><rect x="40" y="52" width="48" height="4" fill="#8FB6D6"/></svg>