<svg viewBox="0 0 128 112" xmlns="http://www.w3.org/2000/svg"><rect width="128" height="112" rx="12" fill="#15152a"/><rect width="128" height="112" rx="12" fill="none" stroke="rgba(255,255,255,.06)"/><ellipse cx="64" cy="96" rx="52" ry="6" fill="rgba(0,0,0,.25)"/><path d="M8 88 Q26 64 46 74 Q66 84 84 62 Q100 44 120 58 L120 92 L8 92 Z" fill="#7C8A6A"/><path d="M8 84 Q26 60 46 70 Q66 80 84 58 Q100 40 120 54" fill="none" stroke="#C9A14E" stroke-width="7"/><path d="M8 80 Q26 56 46 66 Q66 76 84 54 Q100 36 120 50" fill="none" stroke="#EAD9A6" stroke-width="2.4"/><rect x="78" y="40" width="16" height="22" rx="2" fill="#D8B25E"/><rect x="78" y="38" width="16" height="5" fill="#A67C3A"/></svg>