<svg viewBox="0 0 128 112" xmlns="http://www.w3.org/2000/svg"><rect width="128" height="112" rx="12" fill="#15152a"/><rect width="128" height="112" rx="12" fill="none" stroke="rgba(255,255,255,.06)"/><ellipse cx="64" cy="96" rx="52" ry="6" fill="rgba(0,0,0,.25)"/><path d="M42 60 Q64 30 86 60 Z" fill="#E0A45A"/><path d="M30 66 Q42 48 54 66 Z" fill="#D8925A"/><path d="M74 66 Q86 48 98 66 Z" fill="#D8925A"/><rect x="30" y="60" width="68" height="30" fill="#E7D3A0"/><g fill="#CFE0EE"><rect x="16" y="26" width="6" height="64" rx="3"/><rect x="106" y="26" width="6" height="64" rx="3"/></g><polygon points="16,26 19,18 22,26" fill="#B98A3E"/><polygon points="106,26 109,18 112,26" fill="#B98A3E"/><circle cx="64" cy="30" r="2.2" fill="#FFD54A"/><path d="M56 90 V74 Q64 64 72 74 V90 Z" fill="#A67C3A"/><rect x="26" y="88" width="76" height="5" rx="2" fill="#9B7B3A"/></svg>