<svg viewBox="0 0 128 112" xmlns="http://www.w3.org/2000/svg"><rect width="128" height="112" rx="12" fill="#15152a"/><rect width="128" height="112" rx="12" fill="none" stroke="rgba(255,255,255,.06)"/><ellipse cx="64" cy="96" rx="52" ry="6" fill="rgba(0,0,0,.25)"/><rect x="52" y="66" width="24" height="26" rx="2" fill="#8A7A5A"/><rect x="48" y="88" width="32" height="6" rx="2" fill="#6E6047"/><g fill="#86C7A6"><rect x="59" y="44" width="10" height="26" rx="3"/><circle cx="64" cy="38" r="6"/><path d="M69 40 L82 22" stroke="#86C7A6" stroke-width="4" stroke-linecap="round"/><path d="M55 44 L47 34" stroke="#86C7A6" stroke-width="3.4" stroke-linecap="round"/><rect x="46" y="30" width="9" height="12" rx="1.5" transform="rotate(-18 50 36)"/></g><g stroke="#86C7A6" stroke-width="2.2" stroke-linecap="round"><path d="M58 33 l-2 -7 M62 32 l-1 -8 M66 32 l1 -8 M70 33 l3 -7"/></g><circle cx="84" cy="20" r="4.5" fill="#FFD54A"/></svg>