<svg viewBox="0 0 128 112" xmlns="http://www.w3.org/2000/svg"><rect width="128" height="112" rx="12" fill="#15152a"/><rect width="128" height="112" rx="12" fill="none" stroke="rgba(255,255,255,.06)"/><ellipse cx="64" cy="96" rx="52" ry="6" fill="rgba(0,0,0,.25)"/><rect x="18" y="66" width="92" height="24" fill="#C9A14E"/><g fill="#8A6A9E"><rect x="48" y="44" width="10" height="46"/><rect x="70" y="44" width="10" height="46"/><polygon points="48,44 53,24 58,44"/><polygon points="70,44 75,24 80,44"/></g><rect x="58" y="52" width="12" height="38" fill="#A88ABC"/><g fill="#6E5482"><circle cx="53" cy="34" r="1.6"/><circle cx="75" cy="34" r="1.6"/></g><g fill="#15152a"><rect x="22" y="60" width="3" height="6"/><rect x="28" y="60" width="3" height="6"/><rect x="96" y="60" width="3" height="6"/><rect x="102" y="60" width="3" height="6"/></g><rect x="16" y="88" width="96" height="5" rx="2" fill="#A67C3A"/></svg>