<svg viewBox="0 0 128 112" xmlns="http://www.w3.org/2000/svg"><rect width="128" height="112" rx="12" fill="#15152a"/><rect width="128" height="112" rx="12" fill="none" stroke="rgba(255,255,255,.06)"/><ellipse cx="64" cy="96" rx="52" ry="6" fill="rgba(0,0,0,.25)"/><g fill="#E7D3A0"><path d="M40 90 L40 46 Q44 28 48 46 L48 90 Z"/><path d="M54 90 L54 34 Q58 14 62 34 L62 90 Z"/><path d="M66 90 L66 34 Q70 14 74 34 L74 90 Z"/><path d="M80 90 L80 46 Q84 28 88 46 L88 90 Z"/></g><g fill="#C9A14E"><rect x="34" y="82" width="60" height="10" rx="2"/></g><g fill="#FFD54A"><circle cx="44" cy="42" r="2"/><circle cx="60" cy="30" r="2.2"/><circle cx="70" cy="30" r="2.2"/><circle cx="84" cy="42" r="2"/></g></svg>