<svg viewBox="0 0 128 112" xmlns="http://www.w3.org/2000/svg"><rect width="128" height="112" rx="12" fill="#15152a"/><rect width="128" height="112" rx="12" fill="none" stroke="rgba(255,255,255,.06)"/><ellipse cx="64" cy="96" rx="52" ry="6" fill="rgba(0,0,0,.25)"/><g fill="#F2F4F7"><rect x="30" y="70" width="68" height="20" rx="2"/><rect x="52" y="48" width="24" height="30" rx="3"/><path d="M64 30 C50 34 50 52 64 52 C78 52 78 34 64 30 Z"/><circle cx="64" cy="28" r="3"/></g><g fill="#EED9A8"><rect x="24" y="48" width="6" height="42" rx="3"/><rect x="98" y="48" width="6" height="42" rx="3"/><rect x="36" y="54" width="5" height="36" rx="2.5"/><rect x="87" y="54" width="5" height="36" rx="2.5"/></g><path d="M58 90 V72 Q64 62 70 72 V90 Z" fill="#C9A14E"/><circle cx="27" cy="45" r="2.6" fill="#FFD54A"/><circle cx="101" cy="45" r="2.6" fill="#FFD54A"/></svg>