<svg viewBox="0 0 128 112" xmlns="http://www.w3.org/2000/svg"><rect width="128" height="112" rx="12" fill="#15152a"/><rect width="128" height="112" rx="12" fill="none" stroke="rgba(255,255,255,.06)"/><ellipse cx="64" cy="96" rx="52" ry="6" fill="rgba(0,0,0,.25)"/><rect x="16" y="56" width="96" height="34" fill="#E7D3A0"/><rect x="48" y="44" width="32" height="46" fill="#EED9A8"/><polygon points="48,44 64,32 80,44" fill="#D8B25E"/><g fill="#C9A14E"><rect x="22" y="60" width="5" height="26" rx="1"/><rect x="32" y="60" width="5" height="26" rx="1"/><rect x="42" y="60" width="5" height="26" rx="1"/><rect x="52" y="60" width="5" height="26" rx="1"/><rect x="62" y="60" width="5" height="26" rx="1"/><rect x="72" y="60" width="5" height="26" rx="1"/><rect x="82" y="60" width="5" height="26" rx="1"/><rect x="92" y="60" width="5" height="26" rx="1"/><rect x="102" y="60" width="5" height="26" rx="1"/></g><rect x="58" y="66" width="12" height="24" fill="#A67C3A"/><rect x="14" y="88" width="100" height="5" rx="2" fill="#8A6A30"/><circle cx="64" cy="40" r="2" fill="#FFD54A"/></svg>